solid CUBE 
  facet normal  0.00000000E+00  0.00000000E+00  1.00000000E+00
    outer loop
      vertex -5.00000000E-01 -5.00000000E-01  1.00000000E+00
      vertex  5.00000000E-01 -5.00000000E-01  1.00000000E+00
      vertex  5.00000000E-01  5.00000000E-01  1.00000000E+00
    endloop
  endfacet
  facet normal  0.00000000E+00  0.00000000E+00  1.00000000E+00
    outer loop
      vertex -5.00000000E-01 -5.00000000E-01  1.00000000E+00
      vertex  5.00000000E-01  5.00000000E-01  1.00000000E+00
      vertex -5.00000000E-01  5.00000000E-01  1.00000000E+00
    endloop
  endfacet
  facet normal  0.00000000E+00  0.00000000E+00 -1.00000000E+00
    outer loop
      vertex  5.00000000E-01 -5.00000000E-01  0.00000000E+00
      vertex -5.00000000E-01 -5.00000000E-01  0.00000000E+00
      vertex -5.00000000E-01  5.00000000E-01  0.00000000E+00
    endloop
  endfacet
  facet normal  0.00000000E+00  0.00000000E+00 -1.00000000E+00
    outer loop
      vertex  5.00000000E-01 -5.00000000E-01  0.00000000E+00
      vertex -5.00000000E-01  5.00000000E-01  0.00000000E+00
      vertex  5.00000000E-01  5.00000000E-01  0.00000000E+00
    endloop
  endfacet
  facet normal -1.00000000E+00  0.00000000E+00  0.00000000E+00
    outer loop
      vertex -5.00000000E-01 -5.00000000E-01  0.00000000E+00
      vertex -5.00000000E-01 -5.00000000E-01  1.00000000E+00
      vertex -5.00000000E-01  5.00000000E-01  1.00000000E+00
    endloop
  endfacet
  facet normal -1.00000000E+00  0.00000000E+00  0.00000000E+00
    outer loop
      vertex -5.00000000E-01 -5.00000000E-01  0.00000000E+00
      vertex -5.00000000E-01  5.00000000E-01  1.00000000E+00
      vertex -5.00000000E-01  5.00000000E-01  0.00000000E+00
    endloop
  endfacet
  facet normal  1.00000000E+00  0.00000000E+00  0.00000000E+00
    outer loop
      vertex  5.00000000E-01 -5.00000000E-01  1.00000000E+00
      vertex  5.00000000E-01 -5.00000000E-01  0.00000000E+00
      vertex  5.00000000E-01  5.00000000E-01  0.00000000E+00
    endloop
  endfacet
  facet normal  1.00000000E+00 -0.00000000E+00  0.00000000E+00
    outer loop
      vertex  5.00000000E-01 -5.00000000E-01  1.00000000E+00
      vertex  5.00000000E-01  5.00000000E-01  0.00000000E+00
      vertex  5.00000000E-01  5.00000000E-01  1.00000000E+00
    endloop
  endfacet
  facet normal  0.00000000E+00 -1.00000000E+00  0.00000000E+00
    outer loop
      vertex -5.00000000E-01 -5.00000000E-01  0.00000000E+00
      vertex  5.00000000E-01 -5.00000000E-01  0.00000000E+00
      vertex  5.00000000E-01 -5.00000000E-01  1.00000000E+00
    endloop
  endfacet
  facet normal  0.00000000E+00 -1.00000000E+00  0.00000000E+00
    outer loop
      vertex -5.00000000E-01 -5.00000000E-01  0.00000000E+00
      vertex  5.00000000E-01 -5.00000000E-01  1.00000000E+00
      vertex -5.00000000E-01 -5.00000000E-01  1.00000000E+00
    endloop
  endfacet
  facet normal -0.00000000E+00  1.00000000E+00  0.00000000E+00
    outer loop
      vertex -5.00000000E-01  5.00000000E-01  1.00000000E+00
      vertex  5.00000000E-01  5.00000000E-01  1.00000000E+00
      vertex  5.00000000E-01  5.00000000E-01  0.00000000E+00
    endloop
  endfacet
  facet normal  0.00000000E+00  1.00000000E+00  0.00000000E+00
    outer loop
      vertex -5.00000000E-01  5.00000000E-01  1.00000000E+00
      vertex  5.00000000E-01  5.00000000E-01  0.00000000E+00
      vertex -5.00000000E-01  5.00000000E-01  0.00000000E+00
    endloop
  endfacet
endsolid Cube 
